PathFileType	4	(X/Y/Z)	pose_F01_0-96.trc
DataRate	CameraRate	NumFrames	NumMarkers	Units	OrigDataRate	OrigDataStartFrame	OrigNumFrames
30	30	9	21	m	30	0	96
Frame#	Time	CHip			RHip			RKnee			RAnkle			RBigToe			RSmallToe			RHeel			LHip			LKnee			LAnkle			LBigToe			LSmallToe			LHeel			Neck			Nose			RShoulder			RElbow			RWrist			LShoulder			LElbow			LWrist			
		X1	Y1	Z1	X2	Y2	Z2	X3	Y3	Z3	X4	Y4	Z4	X5	Y5	Z5	X6	Y6	Z6	X7	Y7	Z7	X8	Y8	Z8	X9	Y9	Z9	X10	Y10	Z10	X11	Y11	Z11	X12	Y12	Z12	X13	Y13	Z13	X14	Y14	Z14	X15	Y15	Z15	X16	Y16	Z16	X17	Y17	Z17	X18	Y18	Z18	X19	Y19	Z19	X20	Y20	Z20	X21	Y21	Z21	
0	0.0	-0.0933968914813808	1.8783383917034866	-0.5924562966607178	-0.11952604368492686	1.8957791955795422	-0.47525800684028907	-0.14986954786688483	1.7118243506070425	-0.45986715023930325	-0.17325240241736115	1.5891767569288464	-0.4722186942386696	-0.2511509270466865	1.5381125336092751	-0.5274546943441707				-0.13513243636947336	1.5916589241795056	-0.4523827528985625	-0.08813298175619183	1.8817447640528377	-0.5858768292299777	-0.12063341990382075	1.7150345048954618	-0.5437206414183321	-0.1245114264563702	1.5528484120724777	-0.5029214024121836	-0.14929672553149234	1.575033375051462	-0.5107685444071676	-0.13692767673233394	1.5758396151309382	-0.535194095439688	-0.09854220463826671	1.545991763162103	-0.5820165605621469	-0.04531572656749111	1.9958674958031801	-0.6055052397382956	-0.10970284016286666	2.0265962269707503	-0.5790600155135345	-0.019110182342201243	1.9889350749987231	-0.5732741154055743	-0.08430882875830104	1.9368515216427957	-0.4091161334643439	-0.14077158098727094	1.8545436344590165	-0.43904594121341933	-1.6953851616057674	1.8455511851603088	1.110995298924437	0.13653904349099277	1.7988337482884582	-0.563708554676123	0.14183265460067404	1.4576261706265023	-0.6121231319310826
1	0.03333333333333333	-0.09776491715092975	1.8743462296566777	-0.5874165688496157	-0.12289251116748431	1.8903198006373438	-0.4753468381013918	-0.15285424527481548	1.7115052053289772	-0.46084624864892815	-0.17325240241736115	1.5891767569288464	-0.4722186942386696	-0.2511509270466865	1.5381125336092751	-0.5274546943441707				-0.13513243636947336	1.5916589241795056	-0.4523827528985625	-0.09142956783091882	1.8776390472479616	-0.5859788206540887	-0.12066500865573962	1.7144657387776099	-0.5437127702191002	-0.12383556087886942	1.555683976417224	-0.5029673465645259	-0.14929672553149234	1.575033375051462	-0.5107685444071676	-0.13692767673233394	1.5758396151309382	-0.535194095439688	-0.09938771088576012	1.548801909693399	-0.5754264150206778	-0.052678025181143756	1.9941213049103326	-0.6017560396993382	-0.1146210461141339	2.027331885164179	-0.5777733741304254	-0.03010255996881575	1.9875364541769542	-0.5652571558171529	-0.09038738614796848	1.933294624157554	-0.41054654947415103	-0.14288950849889617	1.851692666637513	-0.43649280785749045	-1.7001545296719753	1.8497729750933118	1.117352545123903	0.1177294000739981	1.809602861696689	-0.5757293387433203	0.1205281841932995	1.49755909335876	-0.6207031389284227
2	0.06666666666666667	-0.10213294282047869	1.8703540676098689	-0.5823768410385136	-0.12625897865004176	1.8848604056951455	-0.4754356693624945	-0.15583894268274612	1.711186060050912	-0.46182534705855305	-0.17325240241736115	1.5891767569288464	-0.4722186942386696	-0.2511509270466865	1.5381125336092751	-0.5274546943441707				-0.13513243636947336	1.5916589241795056	-0.4523827528985625	-0.09472615390564582	1.8735333304430855	-0.5860808120781996	-0.12069659740765849	1.713896972659758	-0.5437048990198684	-0.12315969530136864	1.55851954076197	-0.5030132907168682	-0.14929672553149234	1.575033375051462	-0.5107685444071676	-0.13692767673233394	1.5758396151309382	-0.535194095439688	-0.10023321713325353	1.551612056224695	-0.5688362694792087	-0.0600403237947964	1.992375114017485	-0.5980068396603808	-0.11953925206540114	2.028067543357608	-0.5764867327473163	-0.04109493759543026	1.9861378333551853	-0.5572401962287312	-0.09646594353763593	1.9297377266723121	-0.4119769654839582	-0.1450074360105214	1.8488416988160097	-0.43393967450156157	-1.7049238977381833	1.8539947650263149	1.1237097913233691	0.09891975665700342	1.8203719751049199	-0.5877501228105176	0.09922371378592496	1.5374920160910175	-0.6292831459257627
3	0.1	-0.10650096849002763	1.86636190556306	-0.5773371132274115	-0.12962544613259921	1.879401010752947	-0.4755245006235972	-0.15882364009067676	1.7108669147728466	-0.46280444546817795	-0.17325240241736115	1.5891767569288464	-0.4722186942386696	-0.2511509270466865	1.5381125336092751	-0.5274546943441707				-0.13513243636947336	1.5916589241795056	-0.4523827528985625	-0.09802273998037281	1.8694276136382093	-0.5861828035023106	-0.12072818615957737	1.713328206541906	-0.5436970278206366	-0.12248382972386786	1.5613551051067163	-0.5030592348692104	-0.14929672553149234	1.575033375051462	-0.5107685444071676	-0.13692767673233394	1.5758396151309382	-0.535194095439688	-0.10107872338074694	1.5544222027559909	-0.5622461239377397	-0.06740262240844905	1.9906289231246375	-0.5942576396214234	-0.12445745801666838	2.0288032015510367	-0.5752000913642072	-0.05208731522204477	1.9847392125334165	-0.5492232366403098	-0.10254450092730338	1.9261808291870703	-0.4134073814937653	-0.14712536352214664	1.8459907309945063	-0.4313865411456327	-1.7096932658043913	1.858216554959318	1.1300670375228352	0.08011011324000875	1.8311410885131507	-0.599770906877715	0.07791924337855041	1.577424938823275	-0.6378631529231028
4	0.13333333333333333	-0.11086899415957657	1.8623697435162512	-0.5722973854163095	-0.13299191361515666	1.8739416158107487	-0.4756133318846999	-0.1618083374986074	1.7105477694947813	-0.46378354387780285	-0.17325240241736115	1.5891767569288464	-0.4722186942386696	-0.2511509270466865	1.5381125336092751	-0.5274546943441707				-0.13513243636947336	1.5916589241795056	-0.4523827528985625	-0.1013193260550998	1.8653218968333332	-0.5862847949264215	-0.12075977491149624	1.712759440424054	-0.5436891566214047	-0.12180796414636708	1.5641906694514625	-0.5031051790215527	-0.14929672553149234	1.575033375051462	-0.5107685444071676	-0.13692767673233394	1.5758396151309382	-0.535194095439688	-0.10192422962824035	1.5572323492872868	-0.5556559783962706	-0.0747649210221017	1.98888273223179	-0.590508439582466	-0.12937566396793562	2.0295388597444655	-0.5739134499810982	-0.06307969284865927	1.9833405917116476	-0.5412062770518882	-0.10862305831697083	1.9226239317018285	-0.41483779750357247	-0.14924329103377187	1.8431397631730029	-0.4288334077897038	-1.7144626338705993	1.862438344892321	1.1364242837223013	0.06130046982301407	1.8419102019213816	-0.6117916909449123	0.05661477297117587	1.6173578615555326	-0.6464431599204429
5	0.16666666666666666	-0.11523701982912551	1.8583775814694423	-0.5672576576052074	-0.13635838109771412	1.8684822208685503	-0.4757021631458026	-0.16479303490653804	1.710228624216716	-0.46476264228742775	-0.17325240241736115	1.5891767569288464	-0.4722186942386696	-0.2511509270466865	1.5381125336092751	-0.5274546943441707				-0.13513243636947336	1.5916589241795056	-0.4523827528985625	-0.1046159121298268	1.861216180028457	-0.5863867863505324	-0.12079136366341511	1.712190674306202	-0.5436812854221729	-0.1211320985688663	1.5670262337962086	-0.503151123173895	-0.14929672553149234	1.575033375051462	-0.5107685444071676	-0.13692767673233394	1.5758396151309382	-0.535194095439688	-0.10276973587573376	1.5600424958185828	-0.5490658328548015	-0.08212721963575434	1.9871365413389424	-0.5867592395435086	-0.13429386991920286	2.0302745179378943	-0.5726268085979891	-0.07407207047527378	1.9819419708898787	-0.5331893174634668	-0.11470161570663828	1.9190670342165868	-0.4162682135133796	-0.1513612185453971	1.8402887953514995	-0.4262802744337749	-1.7192320019368073	1.866660134825324	1.1427815299217674	0.042490826406019394	1.8526793153296124	-0.6238124750121096	0.03531030256380133	1.6572907842877902	-0.655023166917783
6	0.2	-0.11960504549867446	1.8543854194226335	-0.5622179297941053	-0.13972484858027157	1.863022825926352	-0.4757909944069053	-0.16777773231446869	1.7099094789386506	-0.46574174069705265	-0.17325240241736115	1.5891767569288464	-0.4722186942386696	-0.2511509270466865	1.5381125336092751	-0.5274546943441707				-0.13513243636947336	1.5916589241795056	-0.4523827528985625	-0.10791249820455379	1.8571104632235809	-0.5864887777746434	-0.12082295241533399	1.7116219081883501	-0.543673414222941	-0.12045623299136551	1.5698617981409548	-0.5031970673262373	-0.14929672553149234	1.575033375051462	-0.5107685444071676	-0.13692767673233394	1.5758396151309382	-0.535194095439688	-0.10361524212322717	1.5628526423498788	-0.5424756873133324	-0.08948951824940699	1.9853903504460948	-0.5830100395045512	-0.1392120758704701	2.031010176131323	-0.57134016721488	-0.08506444810188829	1.9805433500681098	-0.5251723578750451	-0.12078017309630573	1.915510136731345	-0.41769862952318676	-0.15347914605702234	1.837437827529996	-0.42372714107784604	-1.7240013700030152	1.870881924758327	1.1491387761212335	0.02368118298902472	1.8634484287378432	-0.6358332590793069	0.014005832156426784	1.6972237070200478	-0.663603173915123
7	0.23333333333333334	-0.1239730711682234	1.8503932573758246	-0.5571782019830033	-0.14309131606282902	1.8575634309841536	-0.475879825668008	-0.17076242972239933	1.7095903336605853	-0.46672083910667755	-0.17325240241736115	1.5891767569288464	-0.4722186942386696	-0.2511509270466865	1.5381125336092751	-0.5274546943441707				-0.13513243636947336	1.5916589241795056	-0.4523827528985625	-0.11120908427928078	1.8530047464187047	-0.5865907691987543	-0.12085454116725286	1.7110531420704982	-0.5436655430237092	-0.11978036741386473	1.572697362485701	-0.5032430114785795	-0.14929672553149234	1.575033375051462	-0.5107685444071676	-0.13692767673233394	1.5758396151309382	-0.535194095439688	-0.10446074837072059	1.5656627888811747	-0.5358855417718633	-0.09685181686305963	1.9836441595532472	-0.5792608394655938	-0.14413028182173734	2.031745834324752	-0.5700535258317709	-0.0960568257285028	1.9791447292463409	-0.5171553982866237	-0.12685873048597318	1.9119532392461032	-0.4191290455329939	-0.15559707356864758	1.8345868597084927	-0.42117400772191715	-1.7287707380692232	1.87510371469133	1.1554960223206996	0.0048715395720300425	1.874217542146074	-0.6478540431465042	-0.007298638250947759	1.7371566297523053	-0.6721831809124631
8	0.26666666666666666	-0.12834109683777234	1.8464010953290158	-0.5521384741719012	-0.14645778354538647	1.8521040360419552	-0.4759686569291107	-0.17374712713032997	1.70927118838252	-0.46769993751630246	-0.17325240241736115	1.5891767569288464	-0.4722186942386696	-0.2511509270466865	1.5381125336092751	-0.5274546943441707				-0.13513243636947336	1.5916589241795056	-0.4523827528985625	-0.11450567035400777	1.8488990296138286	-0.5866927606228652	-0.12088612991917173	1.7104843759526462	-0.5436576718244773	-0.11910450183636395	1.5755329268304472	-0.5032889556309218	-0.14929672553149234	1.575033375051462	-0.5107685444071676	-0.13692767673233394	1.5758396151309382	-0.535194095439688	-0.105306254618214	1.5684729354124707	-0.5292953962303942	-0.10421411547671228	1.9818979686603997	-0.5755116394266364	-0.14904848777300458	2.0324814925181807	-0.5687668844486619	-0.1070492033551173	1.977746108424572	-0.5091384386982021	-0.13293728787564063	1.9083963417608614	-0.42055946154280105	-0.1577150010802728	1.8317358918869893	-0.41862087436598827	-1.7335401061354312	1.8793255046243331	1.1618532685201657	-0.013938103844964633	1.884986655554305	-0.6598748272137015	-0.0286031086583223	1.777089552484563	-0.6807631879098032
